 <!DOCTYPE svg PUBLIC "-//W3C//DTD SVG 1.1//EN" "http://www.w3.org/Graphics/SVG/1.1/DTD/svg11.dtd">
<svg id="a3ba303c-bf20-4e19-9e2c-410dc065741d" data-name="Layer 1" xmlns="http://www.w3.org/2000/svg" width="865.76" height="682.89" viewBox="0 0 865.76 682.89">
<defs>
<style xmlns="http://www.w3.org/1999/xhtml">*, ::after, ::before { box-sizing: border-box; }
img, svg { vertical-align: middle; }
</style>
<style xmlns="http://www.w3.org/1999/xhtml">*, body, html { }
img, svg { max-width: 100%; }
</style>
</defs>
<g id="fe6294ea-8e11-43ee-8d30-15b930f247ab" data-name="freepik--background-complete--inject-611">
<circle cx="245.8" cy="141.62" r="68.04" fill="#ebebeb"/>
<circle cx="245.81" cy="141.63" r="51.94" fill="#fff"/>
<circle cx="245.8" cy="141.63" r="37.11" fill="#ebebeb"/>
<circle cx="245.82" cy="141.62" r="20.52" fill="#fff"/>
<path d="M236.53,141.63a9.27,9.27,0,1,0,9.27-9.28,9.28,9.28,0,0,0-9.27,9.28Z" fill="#ebebeb"/>
<rect x="194.3" y="29.43" width="2.99" height="124.35" transform="translate(-7.43 165.28) rotate(-45)" fill="#a6a6a6"/>
<polygon points="234.31 138.54 245.8 141.63 242.73 130.14 234.31 138.54" fill="#a6a6a6"/>
<polygon points="137.12 41.93 153.6 58.41 166.53 62.36 162.58 49.43 146.1 32.93 150.05 45.86 137.12 41.93" fill="#a6a6a6"/>
<polygon points="550.32 29.7 555.09 36.81 563.34 39.15 558.05 45.88 558.37 54.44 550.32 51.5 542.29 54.44 542.61 45.88 537.32 39.15 545.55 36.81 550.32 29.7" fill="#ebebeb"/>
<polygon points="587.11 29.7 591.88 36.81 600.11 39.15 594.82 45.88 595.14 54.44 587.11 51.5 579.07 54.44 579.39 45.88 574.1 39.15 582.33 36.81 587.11 29.7" fill="#ebebeb"/>
<polygon points="623.88 29.7 628.64 36.81 636.88 39.15 631.59 45.88 631.92 54.44 623.88 51.5 615.84 54.44 616.16 45.88 610.87 39.15 619.1 36.81 623.88 29.7" fill="#ebebeb"/>
<polygon points="660.66 29.7 665.43 36.81 673.66 39.15 668.38 45.88 668.69 54.44 660.66 51.5 652.61 54.44 652.94 45.88 647.65 39.15 655.89 36.81 660.66 29.7" fill="#ebebeb"/>
<path d="M688.63,55.48l.36-9.36-5.74-7.37,9-2.56,5.21-7.78,5.23,7.78,9,2.56L706,46.12l.35,9.36-8.8-3.22Zm8.8-4.79,7.28,2.67-.28-7.74,4.78-6.11-7.46-2.11L697.44,31l-4.31,6.44-7.46,2.11,4.79,6.11-.29,7.74Z" fill="#ebebeb"/>
<polygon points="697.43 51.5 697.43 29.7 692.66 36.81 684.42 39.15 689.71 45.88 689.4 54.44 697.43 51.5" fill="#ebebeb"/>
<g id="fefdcf2e-d50f-479e-8f36-9bbcc3690681" data-name="freepik--xsrjP0--inject-611">
<path d="M651.51,330c-1.83-1.14-3.42-2.79-5.85-2.55-.94.11-.74-.67-.74-1.19q0-13.74-.11-27.44c0-.66,0-1.22.76-1.58,7-3.55,10-10.49,14.26-16.44a27.47,27.47,0,0,0,5-20.78c-.31-2,.64-3,2.5-3.4,2.24-.52,4.46.08,5.23,1.62a36.83,36.83,0,0,1,4,12c.42,3.48-.82,6.85-1.23,10.29-.32,2.51-.89,5-1.37,7.54.62.45,1.33.22,2,.23h23.19c3.26,0,4.85.92,5.31,3.08a6.19,6.19,0,0,1-3.33,6.71c-.59.3-1.62,0-1.7.94s1,.82,1.54,1.2c2.88,1.91,2.3,5.86-.92,8.17-.79.55-2.3.29-2.33,1.44,0,.9,1.44.89,2,1.54,2.27,2.22,1.16,6.39-2.22,8.09a9.69,9.69,0,0,0-1.35.53c-.39.26-.76.54,0,1.08,3.35,2.37,3.29,5.74-.07,8.14l-1,.72a6.48,6.48,0,0,1-4.06.91q-18.2.09-36.37.13A4.35,4.35,0,0,1,651.51,330Z" fill="#ebebeb" fill-rule="evenodd"/>
<path d="M617,314c0-5.75,0-11.63-.09-17.45,0-1.18.12-1.76,1.57-1.75q10.65.12,21.26,0c1.44,0,1.61.46,1.61,1.7q0,17.53.12,35.08c0,1.44-.39,1.91-1.88,1.9-6.87,0-13.76,0-20.64.09-1.71,0-1.94-.58-1.92-2.07C617.06,325.61,617,319.81,617,314Z" fill="#ebebeb" fill-rule="evenodd"/>
</g>
</g>
<g id="bad808ba-689a-4606-8a39-b7236aedc110" data-name="freepik--Cart--inject-611">
<path d="M348.64,592.31H160.41a3.76,3.76,0,0,1-3.77-3.76V566.12h0v-.62l22.86-83.56L150,299.27l-9.84-3.42a3.76,3.76,0,0,1,2.11-7.18l12.15,4.09a3.74,3.74,0,0,1,2.65,3.05l30,185.65a3.34,3.34,0,0,1,0,1.26L165,562.78l175.3,12.46a3.86,3.86,0,0,1,2.54,1.22l8.62,9.57a3.76,3.76,0,0,1-2.78,6.28ZM164.22,584.8H340.16l-1.94-2.16-174-12.37Z" fill="#c7c7c7"/>
<path d="M417.54,358.63H163.87a3.76,3.76,0,1,1-.46-7.51H417.54a3.76,3.76,0,1,1,.46,7.51Z" fill="#c7c7c7"/>
<path d="M183.33,483.28a1.26,1.26,0,0,1,0-2.51l190.56-10.19L411.4,354.49a1.24,1.24,0,0,1,1.58-.8h0a1.23,1.23,0,0,1,.75,1.58v0L375.93,472.22a1.26,1.26,0,0,1-1.12.87L183.4,483.27Z" fill="#c7c7c7"/>
<path d="M378,462.56H179.85a1.27,1.27,0,0,1-1.26-1.25,1.25,1.25,0,0,1,1.25-1.25H378a1.25,1.25,0,0,1,0,2.5Z" fill="#c7c7c7"/>
<path d="M383.07,447.27H177.51a1.25,1.25,0,0,1,0-2.5H383.07a1.25,1.25,0,0,1,0,2.5Z" fill="#c7c7c7"/>
<path d="M387.72,432.08H175.19a1.26,1.26,0,0,1,0-2.51H387.72a1.26,1.26,0,0,1,.27,2.51Z" fill="#c7c7c7"/>
<path d="M392.78,416.84H172.85a1.27,1.27,0,0,1-.27-2.52h220.2a1.27,1.27,0,0,1,0,2.52Z" fill="#c7c7c7"/>
<path d="M397.59,401.59h-227a1.24,1.24,0,0,1-1.26-1.24,1.27,1.27,0,0,1,1.25-1.26h227a1.25,1.25,0,1,1,0,2.5Z" fill="#c7c7c7"/>
<path d="M402.77,386.35H168.18a1.25,1.25,0,0,1,0-2.5H402.77A1.24,1.24,0,0,1,404,385.1,1.25,1.25,0,0,1,402.77,386.35Z" fill="#c7c7c7"/>
<path d="M407.7,371.12H165.85a1.25,1.25,0,0,1,0-2.5H407.7a1.24,1.24,0,0,1,1.25,1.24,1.27,1.27,0,0,1-1.25,1.26Z" fill="#c7c7c7"/>
<path d="M200.44,481.76a1.26,1.26,0,0,1-1.25-1.17L189.56,355a1.25,1.25,0,0,1,1.13-1.34h0a1.28,1.28,0,0,1,1.35,1.15l9.63,125.54a1.25,1.25,0,0,1-1.15,1.34Z" fill="#c7c7c7"/>
<path d="M355.81,473.49a.86.86,0,0,1-.32,0,1.26,1.26,0,0,1-.89-1.53l31.92-117.37a1.25,1.25,0,1,1,2.41.65h0L357,472.6A1.25,1.25,0,0,1,355.81,473.49Z" fill="#c7c7c7"/>
<path d="M220.46,480.75a1.25,1.25,0,0,1-1.25-1.23L216.1,354.91a1.27,1.27,0,0,1,1.22-1.29h0a1.28,1.28,0,0,1,1.27,1.22l3.09,124.62a1.27,1.27,0,0,1-1.22,1.29Z" fill="#c7c7c7"/>
<path d="M241,479.63h0a1.26,1.26,0,0,1-1.22-1.28h0l2.3-123.5a1.26,1.26,0,0,1,1.25-1.23h0a1.24,1.24,0,0,1,1.22,1.27h0l-2.3,123.58A1.25,1.25,0,0,1,241,479.63Z" fill="#c7c7c7"/>
<path d="M333.94,474.47h-.24a1.24,1.24,0,0,1-1-1.44L357,354.69a1.28,1.28,0,0,1,1.44-1,1.23,1.23,0,0,1,1,1.43L335.13,473.49A1.27,1.27,0,0,1,333.94,474.47Z" fill="#c7c7c7"/>
<path d="M309,476h-.2a1.28,1.28,0,0,1-1-1.44l19.63-119.83a1.25,1.25,0,0,1,2.46.39v0L310.26,474.92A1.26,1.26,0,0,1,309,476Z" fill="#c7c7c7"/>
<path d="M262,478.44h-.1a1.24,1.24,0,0,1-1.15-1.32v0l9.15-122.32a1.25,1.25,0,1,1,2.5.19l-9.15,122.32A1.27,1.27,0,0,1,262,478.44Z" fill="#c7c7c7"/>
<path d="M286.68,476.84h-.14a1.25,1.25,0,0,1-1.11-1.4v0l13.42-120.7a1.25,1.25,0,0,1,2.49.27h0l-13.42,120.7A1.25,1.25,0,0,1,286.68,476.84Z" fill="#c7c7c7"/>
<circle cx="184.84" cy="597.84" r="14.04" fill="#2f2e41" data-secondary="true"/>
<path d="M191.21,597.84a6.38,6.38,0,1,1-6.37-6.38,6.37,6.37,0,0,1,6.37,6.38Z" fill="#ebebeb"/>
<circle cx="310.46" cy="597.84" r="14.04" fill="#2f2e41" data-secondary="true"/>
<path d="M316.84,597.84a6.38,6.38,0,1,1-6.38-6.38,6.37,6.37,0,0,1,6.38,6.38Z" fill="#ebebeb"/>
<path d="M150.61,300a4.13,4.13,0,0,1-1.52-.27l-19.78-7.5a4.31,4.31,0,1,1,3.06-8.06l19.83,7.5a4.31,4.31,0,0,1-1.53,8.33Z" fill="#0071f2" data-primary="true"/>
</g>
<path d="M545.22,61.77H302.3a24.8,24.8,0,0,0-24.57,25h0v500a24.82,24.82,0,0,0,24.57,25H545.22a24.85,24.85,0,0,0,24.6-25V86.8A24.84,24.84,0,0,0,545.22,61.77Zm9.22,509.62c0,13.16-9.85,23.81-22,23.81H315.12c-12.19,0-22-10.65-22-23.81V105.75c0-26.81,9.85-28.12,22-28.12h43.53c2.53,0,4.6,2.88,4.6,6.44v1.54c0,8.35,4.57,8.38,10.18,8.38H474.07c5.66,0,10.2,0,10.2-8.38V84.07c0-3.56,2-6.44,4.61-6.44H532.4c12.16,0,22,3.57,22,28.12Z" fill="#2f2e41" data-secondary="true"/>
<path d="M554.53,106.17V571.81c0,13.16-9.86,23.81-22,23.81H315.13c-12.18,0-22-10.65-22-23.81V106.17c0-26.74,9.86-28.18,22-28.18h43.54c2.53,0,4.6,2.88,4.6,6.44V86c0,8.35,4.57,8.37,10.17,8.37H474.07c5.66,0,10.2,0,10.2-8.37V84.49c0-3.57,2-6.44,4.61-6.44H532.4C544.6,78,554.53,81.61,554.53,106.17Z" fill="#fff"/>
<path d="M437.5,83.55H410a1.7,1.7,0,0,1-1.7-1.69h0a1.7,1.7,0,0,1,1.7-1.7H437.5a1.7,1.7,0,0,1,1.69,1.7h0A1.69,1.69,0,0,1,437.5,83.55Z" fill="#fff"/>
<g id="b421bbf2-5e0a-4f3e-819b-fe8d14178311" data-name="freepik--u5Zjqx--inject-611">
<path d="M351.14,88.05l-.42.42-.24.24a5.75,5.75,0,0,0-8.11,0,1.26,1.26,0,0,1-.22-.24c-.15-.13-.28-.28-.42-.42h0c.19-.14.36-.31.53-.46a5.93,5.93,0,0,1,1.24-.79,5.72,5.72,0,0,1,1.62-.54l.82-.11h1.26a5.94,5.94,0,0,1,1.44.35,7.83,7.83,0,0,1,1,.47,7.23,7.23,0,0,1,1,.68l.45.4Z" fill="#a6a6a6"/>
<path d="M343.7,90.08c-.22-.23-.43-.45-.66-.66a4.77,4.77,0,0,1,6.74,0l0,0-.66.66A3.83,3.83,0,0,0,343.7,90.08Z" fill="#a6a6a6"/>
<path d="M348.48,90.74l-.66.66a2,2,0,0,0-2.79,0l-.66-.66a2.88,2.88,0,0,1,4.07,0Z" fill="#a6a6a6"/>
<path d="M347,92a.59.59,0,0,1-.59.59h0a.59.59,0,0,1-.61-.57v0a.6.6,0,0,1,.61-.6A.59.59,0,0,1,347,92Z" fill="#a6a6a6"/>
</g>
<path d="M310.12,89.36a1.74,1.74,0,1,1,1.74,1.74,1.74,1.74,0,0,1-1.74-1.74Z" fill="#a6a6a6"/>
<path d="M315.58,89.36a1.74,1.74,0,1,1,1.74,1.74,1.74,1.74,0,0,1-1.74-1.74Z" fill="#a6a6a6"/>
<path d="M321,89.36a1.74,1.74,0,1,1,1.74,1.74h0A1.72,1.72,0,0,1,321,89.37Z" fill="#a6a6a6"/>
<path d="M326.5,89.36a1.74,1.74,0,1,1,1.74,1.74h0a1.72,1.72,0,0,1-1.72-1.73Z" fill="#a6a6a6"/>
<path d="M331.94,89.36a1.74,1.74,0,1,1,1.74,1.74,1.74,1.74,0,0,1-1.74-1.74Z" fill="#a6a6a6"/>
<path d="M534.85,93.15H520.74V86.61h14.11Zm-13.4-.72h12.68v-5.1H521.48Z" fill="#a6a6a6"/>
<rect x="521.91" y="87.72" width="9.1" height="4.31" fill="#a6a6a6"/>
<rect x="534.85" y="88.14" width="1.25" height="3.49" fill="#a6a6a6"/>
<rect x="408.77" y="58.05" width="30.02" height="70.62" fill="#0071f2" data-primary="true"/>
<path d="M438.78,128.66S435.9,143,423.77,143s-15-14.37-15-14.37Z" fill="#0071f2" data-primary="true"/>
<path d="M438.78,128.66S435.9,143,423.77,143s-15-14.37-15-14.37Z" opacity="0.1" style="isolation:isolate"/>
<polygon points="408.76 128.67 378.74 128.67 381.8 58.05 408.76 58.05 408.76 128.67" fill="#fff"/>
<path d="M408.76,128.67l-30,.19h-.2s2.88-70.72,2.88-70.83v-.34H409c.12.27-.18,35.39-.11,35.68l-.19,35.23Zm0,0-.19-35.39-.1-35.23.29.29-27,.07.36-.35c-.1,0-3,71.45-3.42,70.41l30,.19Z" fill="#2f2e41" data-secondary="true"/>
<path d="M408.77,128.66S405.9,143,393.74,143s-15-14.37-15-14.37Z" fill="#ebebeb"/>
<polygon points="378.74 128.67 348.73 128.67 354.85 58.05 381.8 58.05 378.74 128.67" fill="#0071f2" data-primary="true"/>
<path d="M378.74,128.66s-2.87,14.37-15,14.37-15-14.37-15-14.37Z" fill="#0071f2" data-primary="true"/>
<path d="M378.74,128.66s-2.87,14.37-15,14.37-15-14.37-15-14.37Z" opacity="0.1" style="isolation:isolate"/>
<polygon points="348.71 128.67 318.69 128.67 327.89 58.05 354.85 58.05 348.71 128.67" fill="#fff"/>
<path d="M348.71,128.67l-30,.19h-.22s9-70.74,9-70.85v-.32h27.59V58l-3.16,35.44-3.25,35.22Zm0,0,2.88-35.4,3-35.25.28.32-26.95.07.34-.32c-.1,0-9.12,71.47-9.54,70.41l30,.19Z" fill="#2f2e41" data-secondary="true"/>
<path d="M348.71,128.66S345.84,143,333.7,143s-15-14.37-15-14.37Z" fill="#ebebeb"/>
<polygon points="318.69 128.67 288.68 128.67 300.94 58.05 327.88 58.05 318.69 128.67" fill="#0071f2" data-primary="true"/>
<path d="M318.7,128.66s-2.88,14.37-15,14.37-15-14.37-15-14.37Z" fill="#0071f2" data-primary="true"/>
<path d="M318.7,128.66s-2.88,14.37-15,14.37-15-14.37-15-14.37Z" opacity="0.1" style="isolation:isolate"/>
<path d="M288.71,128.67H258.65l13.4-61.78c1.11-5.11,6.54-8.83,12.94-8.83h15.93Z" fill="#fff"/>
<path d="M288.71,128.67l-30,.19h-.23v-.23c1.88-8.78,10.92-50.9,12.59-58.7a21.37,21.37,0,0,1,1.71-5.85c3.17-5.74,10.21-6.76,16.16-6.36h12.36l-.07.33L295,93.43Zm0,0,6-35.42,6-35.26.28.35H289c-5.75-.35-12.46.57-15.57,6.06a21,21,0,0,0-1.65,5.65l-2.57,11.72-10.3,46.92-.19-.23,30,.18Z" fill="#2f2e41" data-secondary="true"/>
<path d="M288.71,128.66s-2.88,14.37-15,14.37-15-14.37-15-14.37Z" fill="#ebebeb"/>
<polygon points="438.79 128.67 468.81 128.67 465.75 58.05 438.79 58.05 438.79 128.67" fill="#fff"/>
<path d="M438.79,128.67l30-.19-.19.19-3.18-70.61.36.35-26.95-.07.28-.29L439,93.28l-.18,35.39Zm0,0-.19-35.23-.1-35.39v-.29h27.59v.35c0,.26,2.87,70.59,2.87,70.82h-.2l-30-.19Z" fill="#2f2e41" data-secondary="true"/>
<path d="M468.81,128.66s-2.88,14.37-15,14.37-15-14.37-15-14.37Z" fill="#ebebeb"/>
<polygon points="468.81 128.67 498.82 128.67 492.7 58.05 465.75 58.05 468.81 128.67" fill="#0071f2" data-primary="true"/>
<path d="M498.82,128.66S496,143,483.82,143s-15-14.37-15-14.37Z" fill="#0071f2" data-primary="true"/>
<path d="M498.82,128.66S496,143,483.82,143s-15-14.37-15-14.37Z" opacity="0.1" style="isolation:isolate"/>
<polygon points="498.84 128.67 528.85 128.67 519.66 58.05 492.7 58.05 498.84 128.67" fill="#fff"/>
<path d="M498.84,128.67l30-.19c-.41,1.3-9.39-70.68-9.54-70.4l.35.31-26.92,0L493,58c1.51,17.6,4.43,53,5.85,70.65Zm0,0-3.22-35.22-3.18-35.37v-.32h27.61c.1.52,9,70.62,9.09,71.17h-.21l-30-.19Z" fill="#2f2e41" data-secondary="true"/>
<path d="M528.85,128.66S526,143,513.85,143s-15-14.37-15-14.37Z" fill="#ebebeb"/>
<polygon points="528.85 128.67 558.87 128.67 546.61 58.05 519.67 58.05 528.85 128.67" fill="#0071f2" data-primary="true"/>
<path d="M558.84,128.66S556,143,543.81,143s-15-14.37-15-14.37Z" fill="#0071f2" data-primary="true"/>
<path d="M558.84,128.66S556,143,543.81,143s-15-14.37-15-14.37Z" opacity="0.1" style="isolation:isolate"/>
<path d="M558.84,128.67h30L575.45,66.89c-1.1-5.11-6.54-8.83-12.93-8.83H546.63Z" fill="#fff"/>
<path d="M558.84,128.67l30-.19-.19.23L578.37,81.8,575.8,70.08a20.53,20.53,0,0,0-1.66-5.65c-3.1-5.49-9.78-6.41-15.56-6.06h-12l.29-.35C550,75.59,556,111,558.84,128.67Zm0,0-6.31-35.2-6.19-35.38-.07-.33h12.36c7-.56,15.51,1.44,17.24,9.27,2.15,10.06,10.92,50.89,13.22,61.64v.23h-.23Z" fill="#2f2e41" data-secondary="true"/>
<path d="M588.89,128.66S586,143,573.89,143s-15-14.37-15-14.37Z" fill="#ebebeb"/>
<rect x="353.94" y="266.99" width="139.68" height="139.68" fill="#0071f2" data-primary="true"/>
<polygon points="469.67 333.84 377.88 333.84 377.88 320.83 469.67 320.83 469.67 320.83 469.67 333.84" fill="#fff"/>
<polygon points="464.55 331.08 461.52 379.38 386.04 379.38 383 331.08 464.55 331.08" fill="#fff"/>
<path d="M433.53,325.87a9.76,9.76,0,1,1-9.76-9.76h0A9.77,9.77,0,0,1,433.53,325.87Z" fill="#fff"/>
<path d="M410.93,341.53v27.79a2.48,2.48,0,0,1-2.44,2.5h-.44a2.06,2.06,0,0,1-2-2.07h0V341.53a2.06,2.06,0,0,1,2-2h.81a2,2,0,0,1,2.07,2Z" fill="#0071f2" data-primary="true"/>
<path d="M426.22,341.53v27.79a2.48,2.48,0,0,1-2.45,2.5h-.43a2.06,2.06,0,0,1-2-2.07h0V341.53a2.05,2.05,0,0,1,2-2h.81a2,2,0,0,1,2.07,2Z" fill="#0071f2" data-primary="true"/>
<path d="M441.51,341.53v27.79a2.48,2.48,0,0,1-2.45,2.5h-.43a2.06,2.06,0,0,1-2-2.07h0V341.53a2.06,2.06,0,0,1,2-2h.81a2.06,2.06,0,0,1,2.07,2Z" fill="#0071f2" data-primary="true"/>
<polygon points="450.54 325.08 446.23 325.08 446.23 299.27 401.32 299.27 401.32 325.08 397 325.08 397 294.96 450.54 294.96 450.54 325.08" fill="#fff"/>
<circle cx="493.61" cy="267.02" r="22.83" transform="translate(-36.06 452.49) rotate(-47.71)" fill="#2f2e41" data-secondary="true"/>
<path d="M498.35,264.62a7.84,7.84,0,0,1,2.36,5.61,8,8,0,0,1-13.66,5.66,1.83,1.83,0,1,1,2.37-2.78l.21.21a4.37,4.37,0,0,0,7.44-3.09,4.19,4.19,0,0,0-1.29-3,4.32,4.32,0,0,0-3.06-1.3,1.61,1.61,0,0,1-1.33-.57h0a1.86,1.86,0,0,1,0-2.59l3.28-3.33h-5.22a1.83,1.83,0,0,1,0-3.64H499a1.82,1.82,0,0,1,1.84,1.79h0a2,2,0,0,1-.23.86,2.06,2.06,0,0,1-.31.46l-4.07,4.18A7.1,7.1,0,0,1,498.35,264.62Z" fill="#fff"/>
<g id="e4f362e6-30d5-42af-86f6-d4eb0cd96f94" data-name="freepik--speech-bubble--inject-611">
<path d="M475,105.29a32.48,32.48,0,0,0,54.3,20.55l16.25,2.44-8.13-14a32.1,32.1,0,0,0,2.24-15.65A32.51,32.51,0,0,0,475,105.35h0Z" fill="#fff"/>
<path d="M484.77,78.44a32.82,32.82,0,0,1,53.28,35.92v-.56l8.09,14.08.6,1.05-1.18-.19-16.25-2.5.39-.11a32.76,32.76,0,0,1-16.08,7.94,27.13,27.13,0,0,1-4.49.46,31.26,31.26,0,0,1-13.27-2.17,31.88,31.88,0,0,1-7.84-4.31,32.47,32.47,0,0,1-3.42-2.87,35.11,35.11,0,0,1-3-3.39,32.68,32.68,0,0,1,3.16-43.31Zm-3.07,43.23a28.83,28.83,0,0,0,6.39,6.23,30.7,30.7,0,0,0,7.83,4.22,32,32,0,0,0,8.69,1.91,32.89,32.89,0,0,0,4.44,0,29.52,29.52,0,0,0,4.41-.54,31.93,31.93,0,0,0,15.57-8l.15-.15h.23l16.27,2.29-.58.85-8.19-14-.14-.26.12-.3a32.59,32.59,0,0,0,2.28-14.15A32.15,32.15,0,0,0,535.05,86a33.59,33.59,0,0,0-9.73-10.61,32.15,32.15,0,0,0-43.6,46.27Z" fill="#2f2e41" data-secondary="true"/>
<polygon points="503.79 120.42 489.9 106.37 494.57 101.77 502.67 109.98 519.53 83.57 525.05 87.09 503.79 120.42" fill="#0071f2" data-primary="true"/>
</g>
<g id="b648e4e8-5f6c-4cc3-8299-85c3aedfa71e" data-name="freepik--Bags--inject-611">
<polygon points="396.7 611.88 241.84 611.88 264.42 454.13 374.13 454.13 396.7 611.88" fill="#2f2e41" data-secondary="true"/>
<polygon points="396.7 611.88 241.84 611.88 264.42 454.13 374.13 454.13 396.7 611.88" opacity="0.3" style="isolation:isolate"/>
<polygon points="374.12 454.13 356.92 611.88 396.7 611.88 374.12 454.13" opacity="0.1" style="isolation:isolate"/>
<path d="M295.32,465l-4.85-1c0-.14,2.88-13.39,5.84-26.77,3.25-14.45,17.47-21.1,29.35-19.19,8.9,1.43,18.76,8.37,17.25,23.2C341.31,457,340,464.57,340,464.89l-4.88-.79s1.23-7.68,2.8-23.37c1.13-11.39-6-16.68-13.13-17.83-9.62-1.55-21.13,3.78-23.74,15.39C298.15,451.58,295.35,464.87,295.32,465Z" fill="#2f2e41" data-secondary="true"/>
<path d="M359,610.67c3.18-2.27,6.48-4.31,9.77-6.42s6.66-4,10.06-6l.46-.27.43.32c2.62,2,5.23,3.93,7.78,6s5.1,4.11,7.54,6.31c-2.87-1.7-5.55-3.51-8.25-5.36s-5.38-3.72-8-5.65h.88c-3.35,2-6.76,3.87-10.18,5.75S362.56,609.05,359,610.67Z" fill="#fff"/>
<path d="M379.23,599c-.67-10.06-1.18-20.12-1.65-30.18s-.82-20.11-1.22-30.17-.63-20.12-.85-30.18l-.27-15.23c0-5-.13-10.06-.12-15.11.36,5,.61,10.05.92,15.08l.75,15.1c.47,10.06.8,20.12,1.21,30.18s.63,20.12.83,30.17S379.23,588.92,379.23,599Z" fill="#fff"/>
<path d="M299.47,464.51a6.58,6.58,0,1,1-6.6-6.56h0A6.58,6.58,0,0,1,299.47,464.51Z" fill="#2f2e41" data-secondary="true"/>
<path d="M343.71,464.51a6.58,6.58,0,1,1-6.59-6.56h0A6.58,6.58,0,0,1,343.71,464.51Z" fill="#2f2e41" data-secondary="true"/>
<polygon points="317.39 611.88 182.68 611.88 202.32 474.66 297.75 474.66 317.39 611.88" fill="#0071f2" data-primary="true"/>
<polygon points="297.75 474.66 282.77 611.88 317.39 611.88 297.75 474.66" fill="#0071f2" data-primary="true"/>
<polygon points="297.75 474.66 282.77 611.88 317.39 611.88 297.75 474.66" opacity="0.1" style="isolation:isolate"/>
<path d="M229.21,484.13l-4.23-.89c0-.12,2.47-11.66,5.09-23.28,2.87-12.59,15.19-18.36,25.52-16.7,7.74,1.25,16.32,7.29,15,20.12-1.44,13.81-2.45,20.32-2.49,20.59l-4.31-.69c0-.07,1.06-6.67,2.44-20.32,1-9.91-5.26-14.51-11.49-15.52-8.35-1.35-18.37,3.29-20.64,13.4C231.66,472.5,229.22,484,229.21,484.13Z" fill="#2f2e41" data-secondary="true"/>
<path d="M284.6,610.83c2.77-2,5.63-3.78,8.5-5.57s5.75-3.52,8.74-5.19l.4-.23.36.27c2.29,1.71,4.56,3.42,6.77,5.22s4.44,3.58,6.57,5.49c-2.45-1.44-4.83-3.05-7.19-4.66s-4.68-3.25-7-4.91h.77c-2.87,1.71-5.87,3.36-8.86,5S287.69,609.42,284.6,610.83Z" fill="#fff"/>
<path d="M302.19,600.67c-.59-8.75-1-17.5-1.44-26.25s-.71-17.51-1.06-26.28-.55-17.51-.74-26.28l-.24-13.15c0-4.38-.12-8.76-.1-13.14.31,4.31.53,8.75.8,13.11l.65,13.14c.42,8.76.7,17.51,1.06,26.28s.55,17.51.72,26.28S302.19,591.91,302.19,600.67Z" fill="#fff"/>
<path d="M232.81,483.68a5.75,5.75,0,1,1-5.74-5.75A5.74,5.74,0,0,1,232.81,483.68Z" fill="#2f2e41" data-secondary="true"/>
<path d="M271.29,483.68a5.75,5.75,0,1,1-5.75-5.75A5.74,5.74,0,0,1,271.29,483.68Z" fill="#2f2e41" data-secondary="true"/>
</g>
<path d="M637.14,476.06s-25.29,17.5-58.08,11v-8.85s28.63,4.48,53.28-6.9C632.34,471.28,640.2,468.23,637.14,476.06Z" fill="#0071f2" data-primary="true"/>
<path d="M637.14,476.06s-25.29,17.5-58.08,11v-8.85s28.63,4.48,53.28-6.9C632.34,471.28,640.2,468.23,637.14,476.06Z" fill="#231f20" opacity="0.3"/>
<path d="M541.2,483.62l-2.34-15.39A35,35,0,0,0,519.44,466s-9.88,8.27-.47,15A75.38,75.38,0,0,0,541.2,483.62Z" fill="#0071f2" data-primary="true"/>
<path d="M541.2,483.62l-2.34-15.39A35,35,0,0,0,519.44,466s-9.88,8.27-.47,15A75.38,75.38,0,0,0,541.2,483.62Z" fill="#231f20" opacity="0.3"/>
<path d="M681.6,336.67s-15.9,1-28.74-24.24l-3.18-32,12.62-8.7s8.32,10,8.32,11.27S681.6,336.67,681.6,336.67Z" fill="#f7a48b"/>
<path d="M515.48,481.12c8,6.55,25.46,5.89,25.46,5.89l.26-3.39c-12.18-.12-18.79-2.11-22.37-4.3a6.61,6.61,0,0,1,1.42-12c7.19-2.18,18.61.92,18.61.92l25.82,6.58c36.05,10.88,60.65.25,67.66-3.53a3.56,3.56,0,0,1,4.65,1,4.13,4.13,0,0,1,.15,3.82c5-1.31,3.65-9.4,3.65-9.4l-4.68-110.79a49.59,49.59,0,0,1,1.71-11.2c3-11.12,9-16.44,9-16.44,10.17-8.09,5.48-42.76,5.48-42.76,2.35-4.42,10.42-7,10.42-7l-1.29-21.9C659,227.7,639,238.39,639,238.39v13.22a3.35,3.35,0,0,1-.37,1.53l-6.9,13.39c-21.87-1.46-26.57-25.76-26.57-25.76-6.72,3-22.79,2.53-22.79,2.53s16.83,51.47,5.39,60.92-29.61-4.92-29.61-4.92c.14,1.38.27,2.73.35,4.05,2.27,31.49-10.2,44-10.2,44L537.6,362.49C514.61,401.49,515,429,515,429l-.62,25.24-1.61,20.22A7.8,7.8,0,0,0,515.48,481.12Z" fill="#0071f2" data-primary="true"/>
<path d="M558.12,299.3c.14,1.38.27,2.73.35,4.05,12.65,13.09,27.56,7.84,27.56,7.84l19.1,18.9c19.5,20.52,32.67,14.58,32.67,14.58h0c3-11.12,9-16.44,9-16.44,10.17-8.09,5.48-42.76,5.48-42.76,2.35-4.42,10.42-7,10.42-7l-1.29-21.9c-3-30.74-22.43-18.14-22.43-18.14v13.22a3.35,3.35,0,0,1-.37,1.53l-6.9,13.39c-21.87-1.46-26.57-25.76-26.57-25.76-6.72,3-22.79,2.53-22.79,2.53s16.83,51.47,5.39,60.92S558.12,299.3,558.12,299.3Z" fill="#231f20" opacity="0.3"/>
<path d="M659.17,212c2.34,1.67,4.88-.59,4.88-.59,21.14-7.9,36.7-10,43.46-10.57.62-.09,1.23-.16,1.86-.19s1.24,0,1.86,0h0c14.45.38,26.63,14.37,27.63,32.24,1,18.65-10.48,34.46-25.74,35.31a22.81,22.81,0,0,1-3.51-.08h0c-18.86,1-35.14-16.62-35.14-16.62-13.26-4.76-19.42-17.79-19.42-17.79-.14-1.92-1.14-7.27-1.14-7.27C657.88,221.09,659.17,212,659.17,212Z" fill="#0071f2" data-primary="true"/>
<ellipse cx="634.81" cy="203.4" rx="25.1" ry="35.48" fill="#f9b499"/>
<path d="M653.89,186.84s-7.89-14.06-22-9.91c0,0-12.65,3.32-13.89,16.39,0,0,1.46,18.66-3.46,19.39h-3.18V200.58l1-22.19,13.68-8.28h10.38S654.93,172.06,653.89,186.84Z" fill="#f7a48b"/>
<path d="M605.13,240.77c7.24,28,27.14,25.81,27.14,25.81l2.4-5.08,3.92-8.35a3.31,3.31,0,0,0,.38-1.54V238.39c-19.73,4-27.09-20.57-27.09-20.57l-2.17-1.27L611,234.79C610.33,239,605.13,240.77,605.13,240.77Z" fill="#f9b499"/>
<path d="M639,238.39V247s-14.75-2-19.73-16.1C619.24,230.94,626.57,241.07,639,238.39Z" fill="#f7a48b"/>
<path d="M605.13,240.77c7.24,28,27.14,25.81,27.14,25.81l2.27-4.8s-14.3-1.08-20-14.54a16.82,16.82,0,0,1-.47-11,12.56,12.56,0,0,0,.42-3,19.12,19.12,0,0,0-1.64-8.13c-.82-1.9-2-4.91-3.32-8.76l1.25,16.08a8,8,0,0,1-3.85,7.53A10.52,10.52,0,0,1,605.13,240.77Z" fill="#f7a48b"/>
<path d="M601.23,466a44.81,44.81,0,0,1-6.66-6.4l-1.51-1.74L591.65,456c-1-1.19-1.78-2.5-2.65-3.77a84.31,84.31,0,0,1-8.34-16.36l-1.59-4.32c-.52-1.45-.89-2.94-1.34-4.41-1-2.92-1.45-6-2.2-8.95-.4-1.5-.56-3-.83-4.55l-.75-4.56-1.05-9.22c.07,3.09.2,6.19.35,9.29l.55,4.63c.21,1.53.3,3.09.64,4.61a86,86,0,0,0,2,9.1c.44,1.5.79,3,1.29,4.49l1.56,4.41a79.61,79.61,0,0,0,8.77,16.47C591.74,457.9,596,462.63,601.23,466Z" fill="#231f20" opacity="0.3"/>
<path d="M583.57,468a30.11,30.11,0,0,1-6.19-3.94,30.43,30.43,0,0,1-5-5.16,17.24,17.24,0,0,1-1.07-1.47,14.08,14.08,0,0,1-1-1.52l-.92-1.56-.8-1.63c-.59-1.08-.94-2.25-1.44-3.38s-.75-2.33-1.2-3.51c.13,1.24.29,2.48.53,3.71a25.37,25.37,0,0,0,1.08,3.61,25,25,0,0,0,3.66,6.63,23.86,23.86,0,0,0,5.53,5.18A19.33,19.33,0,0,0,583.57,468Z" fill="#231f20" opacity="0.3"/>
<path d="M541.2,531.29a162.6,162.6,0,0,0,10.68,69.45,27.45,27.45,0,0,1,2,8.49c.52,7.09.52,11.9.52,11.9,4.15,4.86,26.09,18,26.09,18,7.85,3.69,10.39-3.47,10.39-3.47-9.74-6.32-20.47-20.39-24.7-26.23a9.75,9.75,0,0,1-1.86-5.94c.34-17.81,6.68-62.47,9.33-80.46a76.74,76.74,0,0,1,3.12-12.66c4.72-14.31,3.49-32,3.49-32-11.3-2.33-41.35-10.16-41.35-10.16l2.34,15.39C542.14,489.78,541.2,531.29,541.2,531.29Z" fill="#f9b499"/>
<path d="M557.44,641.7a16.58,16.58,0,0,1,6.81,3.6,20.2,20.2,0,0,0,8,4.11c25.24,6.23,36.54-1.48,36.54-1.48,5.79-6.23-17.94-12.25-17.94-12.25s-2.54,7.16-10.39,3.47c0,0-21.94-13.16-26.09-18l-1.21,14.55C552.28,640.63,557.44,641.7,557.44,641.7Z" fill="#0071f2" data-primary="true"/>
<path d="M598,524.1c-1.59,28,14.27,66.88,14.27,66.88,3.45,7.93,4.76,25.64,4.76,25.64l23,16.65c10.32,6.61,13.48-1.58,13.48-1.58-10.58-4.5-22.46-21.15-22.46-24.84s1.29-135.57,1.29-135.57c-14.72,8.44-38.26,8.47-38.58,8.47C600.37,493.56,598,524.1,598,524.1Z" fill="#f9b499"/>
<path d="M619.94,636.49c4.5-.23,7.4,3.72,7.4,3.72a10.71,10.71,0,0,0,6.61,4.17c34.19,5.82,38.34-1.86,38.34-1.86,4-4.48-18.78-10.83-18.78-10.83s-3.16,8.19-13.48,1.58l-23-16.65-1.31,10.31C614.66,635.4,619.94,636.49,619.94,636.49Z" fill="#0071f2" data-primary="true"/>
<path d="M689.91,235a37.13,37.13,0,0,0,3.62,16.26c4.09,8.37,11.23,13.91,19.37,13.91,12.68,0,23-13.5,23-30.17s-10.31-30.18-23-30.18c-7.72,0-14.53,5-18.71,12.62A36.87,36.87,0,0,0,689.91,235Z" fill="#fff" opacity="0.3"/>
<path d="M689.91,235a37.13,37.13,0,0,0,3.62,16.26,15.55,15.55,0,0,0,6,1.2c9.29,0,16.84-8.05,16.84-18s-7.55-18-16.84-18a15.93,15.93,0,0,0-5.36.93A36.87,36.87,0,0,0,689.91,235Z" fill="#fff" opacity="0.3"/>
<path d="M709.63,268.05s-12.8.37-21.91-16.52c0,0-26.24-10.84-33.79-25.16a47,47,0,0,1,1.14,7.27s6.67,13.45,19.42,17.79C674.49,251.43,690,268.83,709.63,268.05Z" fill="#231f20" opacity="0.3"/>
<path d="M647.44,209.53a17.79,17.79,0,0,0-2.27,1.24,22.62,22.62,0,0,0-10.36,19.17v8.94l4.16-.49,3.28-14.18Z" fill="#f7a48b"/>
<path d="M664.05,211.36S661.66,168.73,641.8,169c0,0-14.25-14.88-36.24-3.06,0,0-23,13.9-26.34,44.59,0,0-3.11,14.52,3.11,32.77h2.49s-14.31-55.57,22.4-75.38c0,0-22.6,17.52-21.36,44.79l2.28,30.59s21,.83,22.82-8.5c0,0-1.87-20.46-1.25-29.83,0,0,3.06.32,4.64,6.57,0,0,2-2.25-.9-12.83,0,0-2.49-30.07,28.62-26.34,0,0,11.82,2.7,12.65,20.74C654.72,193.11,654.72,218.41,664.05,211.36Z" fill="#2f2e41" data-secondary="true"/>
<ellipse cx="609.19" cy="212.71" rx="5.29" ry="8.19" transform="translate(-31.96 140) rotate(-12.78)" fill="#f9b499"/>
<path d="M619.69,293.13s-25.05-39.31-37.36-49.83c0,0-16,.57-20.93,26.84l-3.28,29.15s17.34,14,29.61,4.93L619.24,335s13.54,10.26,19.73-9c0,0,3.72-9.45,5.36-32l6.16-40.64s.72-6.88,3.44-10c0,0,2.83-4.25,0-16.93,0,0-.68-3,3.59-10a5.14,5.14,0,0,0,.81-3.16c-.13-1.2-.75-2.19-2.91-.5,0,0,.2-3.56-3.29-1,0,0,.82-3.23-2.46-.94,0,0-.82-3.25-3.9,0,0,0-9,7.76-7.8,20.4l1,20.37a3.22,3.22,0,0,1-.32,1.59Z" fill="#f9b499"/>
<path d="M615,312.43s0-15.19,4.71-19.3l-3-4.62S604.92,296.62,615,312.43Z" fill="#f7a48b"/>
<path d="M587.73,304.22,571.46,287s10.27,16.21,1.64,16.21c0,0-9.57-2.34-14.33-9.69l-.65,5.79S576.9,314.07,587.73,304.22Z" fill="#f7a48b"/>
<path d="M649.67,210.79a15.65,15.65,0,0,0-4.47,8.27,15.75,15.75,0,0,0,4.47-8.27Z" fill="#f7a48b"/>
<path d="M655.42,212.71A15.07,15.07,0,0,0,652,216.2a14.82,14.82,0,0,0-2.29,4.33,14.6,14.6,0,0,0,3.45-3.48A15,15,0,0,0,655.42,212.71Z" fill="#f7a48b"/>
<path d="M652.13,211.73a16.9,16.9,0,0,0-3.33,4,16.6,16.6,0,0,0-2.12,4.78,16.79,16.79,0,0,0,3.34-4A17.14,17.14,0,0,0,652.13,211.73Z" fill="#f7a48b"/>
<path d="M674.49,251.43s-1,3.78-2.11,7.42a8.09,8.09,0,0,0,.52,6.25c5.59,10.67,23.24,46.7,16.84,65A9.64,9.64,0,0,1,673.88,334c-4.64-4.45-9.47-13.87-11.19-33.54l-4-41.31s-3.16-11.5-3.59-20.28v-5.24S661.28,246.92,674.49,251.43Z" fill="#f9b499"/>
<path d="M674.49,251.43l-1.39,5.07s-13.75-5.78-17.67-13.51l-.36-9.35S661.33,246.47,674.49,251.43Z" fill="#f7a48b"/>
</svg>